<svg xmlns="http://www.w3.org/2000/svg" viewBox="0 0 920 500" font-family="-apple-system,Segoe UI,Roboto,sans-serif">
<rect width="920" height="500" fill="#ffffff"/>
<rect x="64" y="71" width="646" height="76" fill="#fee2e2"/>
<text x="72" y="109" fill="#b91c1c" font-size="12">self power-off zone (board protection trips here)</text>
<line x1="64" y1="412" x2="710" y2="412" stroke="#e5e7eb"/>
<text x="54" y="416" fill="#6b7280" font-size="12" text-anchor="end">50°C</text>
<line x1="64" y1="349" x2="710" y2="349" stroke="#e5e7eb"/>
<text x="54" y="353" fill="#6b7280" font-size="12" text-anchor="end">60°C</text>
<line x1="64" y1="286" x2="710" y2="286" stroke="#e5e7eb"/>
<text x="54" y="290" fill="#6b7280" font-size="12" text-anchor="end">70°C</text>
<line x1="64" y1="223" x2="710" y2="223" stroke="#e5e7eb"/>
<text x="54" y="227" fill="#6b7280" font-size="12" text-anchor="end">80°C</text>
<line x1="64" y1="160" x2="710" y2="160" stroke="#e5e7eb"/>
<text x="54" y="164" fill="#6b7280" font-size="12" text-anchor="end">90°C</text>
<line x1="64" y1="97" x2="710" y2="97" stroke="#e5e7eb"/>
<text x="54" y="101" fill="#6b7280" font-size="12" text-anchor="end">100°C</text>
<line x1="64" y1="71" x2="710" y2="71" stroke="#ef4444" stroke-width="1.5" stroke-dasharray="6 4"/>
<text x="710" y="65" fill="#ef4444" font-size="12" text-anchor="end">OS thermal-trip limit (104°C)</text>
<line x1="64" y1="444" x2="64" y2="449" stroke="#9ca3af"/>
<text x="64" y="464" fill="#6b7280" font-size="12" text-anchor="middle">06:50</text>
<line x1="145" y1="444" x2="145" y2="449" stroke="#9ca3af"/>
<text x="145" y="464" fill="#6b7280" font-size="12" text-anchor="middle">07:00</text>
<line x1="226" y1="444" x2="226" y2="449" stroke="#9ca3af"/>
<text x="226" y="464" fill="#6b7280" font-size="12" text-anchor="middle">07:10</text>
<line x1="306" y1="444" x2="306" y2="449" stroke="#9ca3af"/>
<text x="306" y="464" fill="#6b7280" font-size="12" text-anchor="middle">07:20</text>
<line x1="387" y1="444" x2="387" y2="449" stroke="#9ca3af"/>
<text x="387" y="464" fill="#6b7280" font-size="12" text-anchor="middle">07:30</text>
<line x1="468" y1="444" x2="468" y2="449" stroke="#9ca3af"/>
<text x="468" y="464" fill="#6b7280" font-size="12" text-anchor="middle">07:40</text>
<line x1="548" y1="444" x2="548" y2="449" stroke="#9ca3af"/>
<text x="548" y="464" fill="#6b7280" font-size="12" text-anchor="middle">07:50</text>
<line x1="629" y1="444" x2="629" y2="449" stroke="#9ca3af"/>
<text x="629" y="464" fill="#6b7280" font-size="12" text-anchor="middle">08:00</text>
<line x1="710" y1="444" x2="710" y2="449" stroke="#9ca3af"/>
<text x="710" y="464" fill="#6b7280" font-size="12" text-anchor="middle">08:10</text>
<line x1="64" y1="46" x2="64" y2="444" stroke="#9ca3af"/>
<line x1="64" y1="444" x2="710" y2="444" stroke="#9ca3af"/>
<line x1="145" y1="46" x2="145" y2="444" stroke="#f59e0b" stroke-width="1.2" stroke-dasharray="3 3"/>
<text x="150" y="62" fill="#b45309" font-size="12">07:00 — scheduled heavy job starts (headless browser)</text>
<polyline points="64.0,349.2 144.8,349.2 160.9,210.3 177.1,128.1 193.2,134.4 209.3,147.1 225.5,140.8 241.7,166.0 290.1,191.3 322.4,128.1 387.0,178.7 467.8,166.0 532.3,166.0 613.1,134.4 645.4,159.7" fill="none" stroke="#2563eb" stroke-width="2.2"/>
<circle cx="645" cy="160" r="4" fill="#2563eb"/>
<text x="652" y="164" fill="#2563eb" font-size="11">⚡ 08:04</text>
<polyline points="64.0,317.7 144.8,317.7 160.9,203.9 177.1,128.1 209.3,128.1 241.7,178.7 274.0,153.4 290.1,121.8 306.2,128.1 322.4,140.8 370.8,191.3 403.2,166.0" fill="none" stroke="#16a34a" stroke-width="2.2"/>
<circle cx="403" cy="166" r="4" fill="#16a34a"/>
<text x="410" y="170" fill="#16a34a" font-size="11">⚡ 07:34</text>
<polyline points="64.0,374.5 144.8,374.5 160.9,197.6 177.1,128.1 193.2,115.5 225.5,115.5 241.7,115.5 257.8,134.4 306.2,172.3 354.7,166.0 403.2,185.0 451.6,121.8 500.1,210.3" fill="none" stroke="#dc2626" stroke-width="2.2"/>
<circle cx="500" cy="210" r="4" fill="#dc2626"/>
<text x="507" y="214" fill="#dc2626" font-size="11">⚡ 07:47</text>
<text x="734" y="56" font-size="13" font-weight="700" fill="#111827">DGX Spark — GB10 SoC temp</text>
<line x1="734" y1="78" x2="756" y2="78" stroke="#2563eb" stroke-width="3"/>
<text x="764" y="82" font-size="12" fill="#374151">Day 1 — off at 08:04</text>
<line x1="734" y1="100" x2="756" y2="100" stroke="#16a34a" stroke-width="3"/>
<text x="764" y="104" font-size="12" fill="#374151">Day 2 — off at 07:34</text>
<line x1="734" y1="122" x2="756" y2="122" stroke="#dc2626" stroke-width="3"/>
<text x="764" y="126" font-size="12" fill="#374151">Day 3 — off at 07:47</text>
<text x="734" y="158" font-size="11" fill="#6b7280">Enclosed space, heatwave.</text>
<text x="734" y="174" font-size="11" fill="#6b7280">Same pattern every morning:</text>
<text x="734" y="190" font-size="11" fill="#6b7280">cool overnight → job spikes</text>
<text x="734" y="206" font-size="11" fill="#6b7280">+40°C in 2 min → board cuts</text>
<text x="734" y="222" font-size="11" fill="#6b7280">power BELOW the 104°C limit.</text>
<text x="64" y="26" font-size="16" font-weight="700" fill="#111827">A DGX Spark powering itself off in an enclosed space during a heatwave</text>
</svg>